<?xml version="1.0" encoding="UTF-8"?>
<svg version="1.1" xmlns="http://www.w3.org/2000/svg" width="512" height="512">
<path d="M0 0 C1.01201477 0.00054382 2.02402954 0.00108765 3.06671143 0.00164795 C19.59887291 0.04238923 35.523992 0.95817716 51.75 4.375 C52.78125 4.58930664 53.8125 4.80361328 54.875 5.02441406 C101.10680927 14.94980561 143.72188765 37.60106665 177.75 70.375 C178.7390332 71.32318604 178.7390332 71.32318604 179.74804688 72.29052734 C189.23630305 81.43497479 197.9762044 90.73234009 205.75 101.375 C206.60806152 102.52605017 207.46613451 103.67709177 208.32421875 104.828125 C214.36236829 113.01930614 219.72095521 121.53304105 224.75 130.375 C225.11448242 131.00680176 225.47896484 131.63860352 225.85449219 132.28955078 C240.78473018 158.37464001 250.26385054 187.71085114 254.75 217.375 C254.92660156 218.49745117 255.10320312 219.61990234 255.28515625 220.77636719 C256.9420586 232.38947743 257.14873513 243.90679945 257.125 255.625 C257.12418427 257.14302216 257.12418427 257.14302216 257.12335205 258.69171143 C257.08261077 275.22387291 256.16682284 291.148992 252.75 307.375 C252.42854004 308.921875 252.42854004 308.921875 252.10058594 310.5 C242.17519439 356.73180927 219.52393335 399.34688765 186.75 433.375 C186.11787598 434.03435547 185.48575195 434.69371094 184.83447266 435.37304688 C175.69002521 444.86130305 166.39265991 453.6012044 155.75 461.375 C154.59894983 462.23306152 153.44790823 463.09113451 152.296875 463.94921875 C144.10569386 469.98736829 135.59195895 475.34595521 126.75 480.375 C126.11819824 480.73948242 125.48639648 481.10396484 124.83544922 481.47949219 C98.75035999 496.40973018 69.41414886 505.88885054 39.75 510.375 C38.62754883 510.55160156 37.50509766 510.72820312 36.34863281 510.91015625 C24.73552257 512.5670586 13.21820055 512.77373513 1.5 512.75 C-0.01802216 512.74918427 -0.01802216 512.74918427 -1.56671143 512.74835205 C-18.09887291 512.70761077 -34.023992 511.79182284 -50.25 508.375 C-51.796875 508.05354004 -51.796875 508.05354004 -53.375 507.72558594 C-99.60680927 497.80019439 -142.22188765 475.14893335 -176.25 442.375 C-176.90935547 441.74287598 -177.56871094 441.11075195 -178.24804688 440.45947266 C-187.73630305 431.31502521 -196.4762044 422.01765991 -204.25 411.375 C-205.10806152 410.22394983 -205.96613451 409.07290823 -206.82421875 407.921875 C-212.86236829 399.73069386 -218.22095521 391.21695895 -223.25 382.375 C-223.61448242 381.74319824 -223.97896484 381.11139648 -224.35449219 380.46044922 C-239.28473018 354.37535999 -248.76385054 325.03914886 -253.25 295.375 C-253.51490234 293.69132324 -253.51490234 293.69132324 -253.78515625 291.97363281 C-255.4420586 280.36052257 -255.64873513 268.84320055 -255.625 257.125 C-255.62445618 256.11298523 -255.62391235 255.10097046 -255.62335205 254.05828857 C-255.58261077 237.52612709 -254.66682284 221.601008 -251.25 205.375 C-251.03569336 204.34375 -250.82138672 203.3125 -250.60058594 202.25 C-240.67519439 156.01819073 -218.02393335 113.40311235 -185.25 79.375 C-184.61787598 78.71564453 -183.98575195 78.05628906 -183.33447266 77.37695312 C-174.19002521 67.88869695 -164.89265991 59.1487956 -154.25 51.375 C-153.09894983 50.51693848 -151.94790823 49.65886549 -150.796875 48.80078125 C-142.60569386 42.76263171 -134.09195895 37.40404479 -125.25 32.375 C-124.61819824 32.01051758 -123.98639648 31.64603516 -123.33544922 31.27050781 C-97.25035999 16.34026982 -67.91414886 6.86114946 -38.25 2.375 C-37.12754883 2.19839844 -36.00509766 2.02179687 -34.84863281 1.83984375 C-23.23552257 0.1829414 -11.71820055 -0.02373513 0 0 Z " fill="#000055" transform="translate(255.25,-0.375)"/>
<path d="M0 0 C71.80652265 0 71.80652265 0 86.80078125 14.390625 C95.56634625 24.79097566 96.88735553 35.97230621 96 49 C94.45596306 58.78762401 89.22053356 68.05120842 81.55078125 74.3359375 C76.06217466 77.91655987 69.98954562 80.38474909 64 83 C62.66343695 83.66016773 61.32931639 84.32535923 60 85 C60.33222565 85.49207443 60.66445129 85.98414886 61.00674438 86.49113464 C64.54558821 91.73293827 68.08356458 96.97532666 71.62109375 102.21801758 C72.93175518 104.16021725 74.24261929 106.10228017 75.55371094 108.04418945 C79.38991855 113.72631417 83.22122626 119.41169607 87.04748535 125.1005249 C88.37720709 127.07515544 89.7089112 129.04845216 91.0423584 131.02056885 C93.01938594 133.94452087 94.99068267 136.87226281 96.9609375 139.80078125 C97.56918365 140.69733932 98.17742981 141.5938974 98.80410767 142.5176239 C99.35650116 143.34107803 99.90889465 144.16453217 100.47802734 145.01293945 C100.96669281 145.73705521 101.45535828 146.46117096 101.95883179 147.20722961 C103 149 103 149 103 151 C97.43769177 151.46251763 91.89851651 151.72214907 86.31640625 151.58984375 C85.39802979 151.57042725 84.47965332 151.55101074 83.53344727 151.53100586 C80.31900416 150.85726453 79.03366096 149.61860767 76.875 147.1875 C75.88441637 145.14029383 74.93139824 143.07480273 74 141 C72.22458291 138.03269452 70.32020995 135.15004336 68.4375 132.25 C67.39688747 130.59814747 66.35921154 128.94444196 65.32421875 127.2890625 C63.0282657 123.62900684 60.71756677 119.97886542 58.39453125 116.3359375 C57.49250977 114.91849243 57.49250977 114.91849243 56.57226562 113.47241211 C55.36248055 111.58204188 54.14377779 109.69734767 52.91601562 107.81860352 C50.36127412 103.88332984 47.92460893 100.0735636 46.07421875 95.75390625 C44.38807058 91.65042037 44.38807058 91.65042037 40 87 C33.07 86.67 26.14 86.34 19 86 C19 107.45 19 128.9 19 151 C12.73 151 6.46 151 0 151 C0 101.17 0 51.34 0 0 Z " fill="#FCFCFD" transform="translate(146,182)"/>
<path d="M0 0 C30.69 0 61.38 0 93 0 C93 18.37732231 93 18.37732231 87.67578125 25.67578125 C87.11102585 26.51274033 86.54627045 27.3496994 85.96440125 28.21202087 C84.11402264 30.93702706 82.21442345 33.62328254 80.3125 36.3125 C78.9931509 38.2361468 77.67745896 40.16230645 76.36523438 42.09082031 C73.63784162 46.08818354 70.89112564 50.0711022 68.12744141 54.04345703 C62.25104448 62.50084481 56.52253933 71.05720452 50.78012085 79.60580444 C49.08888461 82.1179706 47.39048662 84.62508513 45.6887207 87.13012695 C34.94218886 102.97399704 24.50900166 118.98628319 14 135 C39.74 135 65.48 135 92 135 C91.67 140.28 91.34 145.56 91 151 C58.66 151 26.32 151 -7 151 C-7 131.48236393 -7 131.48236393 -1.67578125 124.48046875 C-1.11057266 123.66917511 -0.54536407 122.85788147 0.03697205 122.02200317 C1.88566734 119.38378977 3.78562677 116.78756051 5.6875 114.1875 C7.00041582 112.33088146 8.30876741 110.47102781 9.61279297 108.6081543 C11.64716289 105.70362711 13.68446972 102.80167399 15.7366333 99.90968323 C23.31273885 89.22726389 30.46725832 78.27751853 37.625 67.3125 C39.94720324 63.76474298 42.27289551 60.21929875 44.6015625 56.67578125 C45.14849258 55.84344467 45.69542267 55.01110809 46.25892639 54.15354919 C50.06567669 48.37704006 53.9386467 42.65022037 57.89126587 36.9724884 C62.70129404 30.04878451 67.3194117 23.02088245 72 16 C48.24 16 24.48 16 0 16 C0 10.72 0 5.44 0 0 Z " fill="#FCFCFD" transform="translate(279,182)"/>
<path d="M0 0 C13.98566479 -0.6262238 28.42868815 2.55997875 39.2109375 11.828125 C43.83983096 17.44748038 45.65756546 22.88893205 45.4375 30.1875 C45.4271875 30.98067627 45.416875 31.77385254 45.40625 32.59106445 C45.17595981 41.59524166 44.07003659 50.53024772 43.08129883 59.47558594 C40.55579942 76.27259344 40.55579942 76.27259344 45 92 C52.66267186 99.29104112 64.07758968 99.23673767 74 100 C74 104.95 74 109.9 74 115 C70.6278125 115.12375 70.6278125 115.12375 67.1875 115.25 C59.22402188 115.70113941 50.91963573 116.87848174 44.875 122.5625 C37.77860358 131.78781535 42.31222222 151.03110343 43.5 161.6875 C46.93583403 193.10921275 46.93583403 193.10921275 40 202 C32.84960469 209.60572708 21.23909952 213.5045597 11 214 C7.32890431 214.05873753 3.67232885 214.04590411 0 214 C0 209.05 0 204.1 0 199 C1.0621875 198.90203125 2.124375 198.8040625 3.21875 198.703125 C15.58387219 197.75056485 15.58387219 197.75056485 25.6796875 191.14697266 C30.89524612 182.6659034 25.73104184 164.48648998 24.70898438 154.89355469 C21.37480232 123.37759571 21.37480232 123.37759571 27 116 C31.41909249 111.37536833 35.9799714 109.64547448 42 108 C41.26394531 107.63648438 40.52789062 107.27296875 39.76953125 106.8984375 C32.19251469 102.99482263 27.36589087 99.96891858 24.1875 91.8125 C20.80141864 79.77237608 23.93012694 66.10193116 25.29101562 53.88818359 C27.82033171 37.82795795 27.82033171 37.82795795 26 22 C24.31980946 20.82342532 24.31980946 20.82342532 22 20 C20.6078125 19.2575 20.6078125 19.2575 19.1875 18.5 C13.26592878 15.93050764 6.32602429 15.72777271 0 15 C0 10.05 0 5.1 0 0 Z " fill="#F9F9FB" transform="translate(420,149)"/>
<path d="M0 0 C0 4.62 0 9.24 0 14 C-0.99 14.09796875 -1.98 14.1959375 -3 14.296875 C-15.50221263 15.61876703 -15.50221263 15.61876703 -25.5 22.6875 C-29.15115797 30.75047384 -26.36977222 40.94310727 -25.28881836 49.49740601 C-22.60041183 71.04698419 -22.60041183 71.04698419 -22.5 81.6875 C-22.48195312 82.43813721 -22.46390625 83.18877441 -22.4453125 83.9621582 C-22.52204241 90.8766424 -25.00347964 96.00347964 -29.8125 100.8125 C-33.17438661 103.11967709 -36.20427361 104.55762397 -40 106 C-39.33613281 106.29132813 -38.67226563 106.58265625 -37.98828125 106.8828125 C-30.97558077 110.13834353 -25.88127108 113.5077474 -23 121 C-22.80129886 123.70839882 -22.71674041 126.2862358 -22.75 128.9921875 C-22.75531738 129.78140594 -22.76063477 130.57062439 -22.76611328 131.38375854 C-22.91046021 140.68785468 -23.94339441 149.88856526 -25 159.125 C-25.28883988 161.70323518 -25.57477005 164.28172803 -25.85595703 166.86080933 C-26.02915543 168.44413269 -26.20685848 170.02697313 -26.39013672 171.60916138 C-27.79522777 182.3115524 -27.79522777 182.3115524 -24 192 C-16.86306595 197.0378358 -8.46911839 197.21886772 0 198 C0 202.95 0 207.9 0 213 C-13.16043562 213.44611646 -26.3689006 211.8620119 -36.875 203.375 C-41.87931227 198.5744031 -44.61560322 193.50185198 -45.21069336 186.5324707 C-45.22563705 176.92191887 -44.09822577 167.47050505 -43 157.9375 C-39.58731715 138.88597074 -39.58731715 138.88597074 -44 121 C-52.74929303 114.65247368 -62.52447752 114.60435707 -73 114 C-73 109.05 -73 104.1 -73 99 C-71.81664063 98.91363281 -70.63328125 98.82726562 -69.4140625 98.73828125 C-54.97182169 97.79478225 -54.97182169 97.79478225 -43.30859375 90.0234375 C-36.55370681 79.57856754 -42.08323415 60.15242773 -43.63720703 48.72558594 C-47.05991295 23.01152883 -47.05991295 23.01152883 -40.78125 13.0703125 C-35.02697382 5.62172167 -26.06029185 1.59312114 -16.875 0.375 C-11.2529985 -0.17278476 -5.64333847 -0.06486596 0 0 Z " fill="#FAFAFC" transform="translate(91,150)"/>
<path d="M0 0 C5.011875 -0.0825 10.02375 -0.165 15.1875 -0.25 C17.51590942 -0.30462402 17.51590942 -0.30462402 19.89135742 -0.36035156 C30.67958334 -0.44542247 42.57871835 0.44243955 51 8 C55.64451138 14.43898169 56.20027897 20.16167668 56.25 27.8125 C56.270625 28.59431641 56.29125 29.37613281 56.3125 30.18164062 C56.35838548 37.0472549 54.7381382 41.46728433 50.8125 47.1875 C43.33753345 54.66246655 33.57608126 56.1562072 23.33984375 56.1953125 C20.5389873 56.18399591 17.73818267 56.15818936 14.9375 56.125 C10.008125 56.08375 5.07875 56.0425 0 56 C0 37.52 0 19.04 0 0 Z " fill="#010156" transform="translate(165,197)"/>
</svg>
